<svg width="24" height="24" viewBox="0 0 24 24" fill="none" xmlns="http://www.w3.org/2000/svg">
<rect width="24" height="24" rx="3" fill="#838DB1"/>
<path fill-rule="evenodd" clip-rule="evenodd" d="M15 5.5H5.25C4.8375 5.5 4.5 5.8375 4.5 6.25V16.75L7.5 13.75H15C15.4125 13.75 15.75 13.4125 15.75 13V6.25C15.75 5.8375 15.4125 5.5 15 5.5ZM14.25 7V12.25H6.8775L6 13.1275V7H14.25ZM17.25 8.5H18.75C19.1625 8.5 19.5 8.8375 19.5 9.25V20.5L16.5 17.5H8.25C7.8375 17.5 7.5 17.1625 7.5 16.75V15.25H17.25V8.5Z" fill="white"/>
</svg>
