<svg width="21" height="21" viewBox="0 0 21 21" fill="none" xmlns="http://www.w3.org/2000/svg">
<path id="Shape" fill-rule="evenodd" clip-rule="evenodd" d="M17 15.6099L20.71 19.2899C21.0847 19.6775 21.0847 20.2923 20.71 20.6799C20.5223 20.8692 20.2667 20.9757 20 20.9757C19.7334 20.9757 19.4778 20.8692 19.29 20.6799L15.61 16.9999C11.8817 19.9901 6.46631 19.5447 3.27669 15.9854C0.0870566 12.4262 0.235685 6.99456 3.61518 3.61506C6.99468 0.235563 12.4263 0.0869346 15.9856 3.27656C19.5448 6.46619 19.9903 11.8816 17 15.6099ZM3.00004 9.99992C3.00004 13.8659 6.13405 16.9999 10 16.9999C11.8566 16.9999 13.637 16.2624 14.9498 14.9497C16.2625 13.6369 17 11.8564 17 9.99992C17 6.13393 13.866 2.99992 10 2.99992C6.13405 2.99992 3.00004 6.13393 3.00004 9.99992Z" fill="white"/>
</svg>
