<svg width="30" height="30" viewBox="0 0 30 30" fill="none" xmlns="http://www.w3.org/2000/svg">
<rect width="30" height="30" rx="2" fill="#555555"/>
<path fill-rule="evenodd" clip-rule="evenodd" d="M6 11H24C24.5523 11 25 10.5523 25 10C25 9.44772 24.5523 9 24 9H6C5.44772 9 5 9.44772 5 10C5 10.5523 5.44772 11 6 11ZM24 19H6C5.44772 19 5 19.4477 5 20C5 20.5523 5.44772 21 6 21H24C24.5523 21 25 20.5523 25 20C25 19.4477 24.5523 19 24 19ZM6 14H24C24.5523 14 25 14.4477 25 15C25 15.5523 24.5523 16 24 16H6C5.44772 16 5 15.5523 5 15C5 14.4477 5.44772 14 6 14Z" fill="white"/>
</svg>
