<svg width="13" height="8" viewBox="0 0 13 8" fill="none" xmlns="http://www.w3.org/2000/svg">
<path d="M11.8442 0.34179C11.4054 -0.0943988 10.6967 -0.0943988 10.2579 0.34179L6.21915 4.32429L2.23665 0.34179C1.79786 -0.0943988 1.08919 -0.0943988 0.6504 0.34179C0.437423 0.553028 0.317627 0.840573 0.317627 1.14054C0.317627 1.44051 0.437423 1.72805 0.6504 1.93929L5.4204 6.70929C5.63164 6.92227 5.91918 7.04206 6.21915 7.04206C6.51912 7.04206 6.80666 6.92227 7.0179 6.70929L11.8442 1.93929C12.0571 1.72805 12.1769 1.44051 12.1769 1.14054C12.1769 0.840573 12.0571 0.553028 11.8442 0.34179Z" fill="#8F89FF"/>
</svg>
