<svg width="8" height="13" viewBox="0 0 8 13" fill="none" xmlns="http://www.w3.org/2000/svg">
<path d="M0.341546 1.15609C-0.094643 1.59489 -0.094643 2.30355 0.341546 2.74234L4.32405 6.78109L0.341546 10.7636C-0.094643 11.2024 -0.094643 11.9111 0.341546 12.3498C0.552783 12.5628 0.840329 12.6826 1.1403 12.6826C1.44026 12.6826 1.72781 12.5628 1.93905 12.3498L6.70905 7.57984C6.92202 7.36861 7.04182 7.08106 7.04182 6.78109C7.04182 6.48113 6.92202 6.19358 6.70905 5.98234L1.93905 1.15609C1.72781 0.943117 1.44026 0.823321 1.1403 0.823321C0.840329 0.823321 0.552783 0.943117 0.341546 1.15609Z" fill="#111111"/>
</svg>
